<?xml version="1.0" encoding="UTF-8"?>
<!-- Generator: Adobe Illustrator 21.0.0, SVG Export Plug-In . SVG Version: 6.00 Build 0)  -->
<svg version="1.1" id="Layer_1" xmlns="http://www.w3.org/2000/svg" xmlns:xlink="http://www.w3.org/1999/xlink" x="0px" y="0px" viewBox="0 0 652 231.9" style="enable-background:new 0 0 652 231.9;" xml:space="preserve">
<style type="text/css">
	.st0{fill:url(#SVGID_1_);}
	.st1{fill:url(#SVGID_2_);}
	.st2{fill:url(#SVGID_3_);}
	.st3{fill:url(#SVGID_4_);}
	.st4{fill:url(#SVGID_5_);}
</style>
<linearGradient id="SVGID_1_" gradientUnits="userSpaceOnUse" x1="141.75" y1="204.1" x2="141.75" y2="-9.094947e-13">
	<stop offset="0" style="stop-color:#7C8796"/>
	<stop offset="7.519108e-02" style="stop-color:#959DA9"/>
	<stop offset="0.1835" style="stop-color:#B2B7C0"/>
	<stop offset="0.2914" style="stop-color:#C6CAD0"/>
	<stop offset="0.3976" style="stop-color:#D3D5DA"/>
	<stop offset="0.5" style="stop-color:#D7D9DE"/>
	<stop offset="0.5907" style="stop-color:#CED1D6"/>
	<stop offset="0.7386" style="stop-color:#B6BBC3"/>
	<stop offset="0.9243" style="stop-color:#8E97A4"/>
	<stop offset="1" style="stop-color:#7C8796"/>
</linearGradient>
<polygon class="st0" points="212.6,0 70.9,170.8 70.9,204.1 212.6,33.3 "/>
<linearGradient id="SVGID_2_" gradientUnits="userSpaceOnUse" x1="70.85" y1="231.9" x2="70.85" y2="27.8">
	<stop offset="0" style="stop-color:#7C8796"/>
	<stop offset="7.519108e-02" style="stop-color:#959DA9"/>
	<stop offset="0.1835" style="stop-color:#B2B7C0"/>
	<stop offset="0.2914" style="stop-color:#C6CAD0"/>
	<stop offset="0.3976" style="stop-color:#D3D5DA"/>
	<stop offset="0.5" style="stop-color:#D7D9DE"/>
	<stop offset="0.5907" style="stop-color:#CED1D6"/>
	<stop offset="0.7386" style="stop-color:#B6BBC3"/>
	<stop offset="0.9243" style="stop-color:#8E97A4"/>
	<stop offset="1" style="stop-color:#7C8796"/>
</linearGradient>
<polygon class="st1" points="0,198.6 0,231.9 141.7,61 141.7,27.8 "/>
<g>
	<linearGradient id="SVGID_3_" gradientUnits="userSpaceOnUse" x1="593.9" y1="207.5" x2="593.9" y2="58.7">
		<stop offset="0" style="stop-color:#7C8796"/>
		<stop offset="7.519108e-02" style="stop-color:#959DA9"/>
		<stop offset="0.1835" style="stop-color:#B2B7C0"/>
		<stop offset="0.2914" style="stop-color:#C6CAD0"/>
		<stop offset="0.3976" style="stop-color:#D3D5DA"/>
		<stop offset="0.5" style="stop-color:#D7D9DE"/>
		<stop offset="0.5907" style="stop-color:#CED1D6"/>
		<stop offset="0.7386" style="stop-color:#B6BBC3"/>
		<stop offset="0.9243" style="stop-color:#8E97A4"/>
		<stop offset="1" style="stop-color:#7C8796"/>
	</linearGradient>
	<path class="st2" d="M603.1,119.9l-1.1-0.3c-19.5-4.9-28.4-7.1-28.4-18.9c0-10.8,8.6-17.8,21.8-17.8c13.1,0,20.4,6.8,21.4,20.2   l0.1,1.1h31.2V103c0-4.9,0-16.3-8.2-26.7c-12.2-15.3-32.3-17.6-43.3-17.6c-41.6,0-56.4,23.4-56.4,45.3c0,18.8,8.8,32.7,52.4,43.6   c17.6,4.2,25.6,6.1,25.6,17.6c0,11.1-9.9,18.3-25.3,18.3c-10.4,0-17.5-3.3-21.1-9.9c-3-5.4-3-11.7-3-15.1V157H537l-1.2,0.1v1.2   c0.2,13.4,0.7,49.2,55.4,49.2c36.1,0,60.6-18.6,60.8-46.3v-0.8C651.7,131.6,624.7,125.1,603.1,119.9"/>
	<linearGradient id="SVGID_4_" gradientUnits="userSpaceOnUse" x1="435.3" y1="204.4" x2="435.3" y2="62.5">
		<stop offset="0" style="stop-color:#7C8796"/>
		<stop offset="7.519108e-02" style="stop-color:#959DA9"/>
		<stop offset="0.1835" style="stop-color:#B2B7C0"/>
		<stop offset="0.2914" style="stop-color:#C6CAD0"/>
		<stop offset="0.3976" style="stop-color:#D3D5DA"/>
		<stop offset="0.5" style="stop-color:#D7D9DE"/>
		<stop offset="0.5907" style="stop-color:#CED1D6"/>
		<stop offset="0.7386" style="stop-color:#B6BBC3"/>
		<stop offset="0.9243" style="stop-color:#8E97A4"/>
		<stop offset="1" style="stop-color:#7C8796"/>
	</linearGradient>
	<polygon class="st3" points="477.1,160.2 453.9,62.5 419,62.5 394.9,160.4 374.8,62.5 341.4,62.5 375.1,204.4 409.5,204.4    435.2,103.6 458.5,204.4 493.9,204.4 529.2,62.5 498.1,62.5  "/>
	<linearGradient id="SVGID_5_" gradientUnits="userSpaceOnUse" x1="272.95" y1="204.4" x2="272.95" y2="62.5">
		<stop offset="0" style="stop-color:#7C8796"/>
		<stop offset="7.519108e-02" style="stop-color:#959DA9"/>
		<stop offset="0.1835" style="stop-color:#B2B7C0"/>
		<stop offset="0.2914" style="stop-color:#C6CAD0"/>
		<stop offset="0.3976" style="stop-color:#D3D5DA"/>
		<stop offset="0.5" style="stop-color:#D7D9DE"/>
		<stop offset="0.5907" style="stop-color:#CED1D6"/>
		<stop offset="0.7386" style="stop-color:#B6BBC3"/>
		<stop offset="0.9243" style="stop-color:#8E97A4"/>
		<stop offset="1" style="stop-color:#7C8796"/>
	</linearGradient>
	<path class="st4" d="M309,75.3c-11.6-8.5-28-12.8-48.9-12.8h-47.5v141.9h44.8c14.1,0,20-0.6,25.4-1.6c14.3-2.6,26.6-10,35.4-21.3   c10-12.8,15.1-29.7,15.1-50.2C333.3,117.1,330.1,90.9,309,75.3 M287.6,170c-8.6,8.6-19.9,9.3-31.6,9.3c-2.5,0-5.8-0.1-8.6-0.2V87.4   c3.5-0.1,6.6-0.2,9.3-0.2c9.1,0,13.6,0.8,18.5,2.2c21.4,6,24.6,28.9,24.6,42C299.9,139.3,298.7,158.9,287.6,170"/>
</g>
</svg>