<svg xmlns="http://www.w3.org/2000/svg" viewBox="0 0 128 128">
	<path d="M84.2421,52.3011c-0.1731-5.0114-2.1636-9.9711-5.9806-13.7881c-3.8737-3.8736-9.0238-6.0071-14.5021-6.0071
		c-5.4783,0-10.629,2.1335-14.5026,6.0071c-3.8824,3.8824-5.8741,8.947-5.9868,14.0457C36.373,58.3575,32,66.9649,32,76.577
		c0,3.1095,0.4567,6.1118,1.3114,8.95c2.8877-7.7654,8.7945-14.097,16.3212-17.6511c1.756,1.6713,3.7565,2.9966,5.9213,3.9419
		l8.1497,23.6763l8.2911-23.6896c2.1735-0.9534,4.1809-2.29,5.9406-3.9758c7.7314,3.5135,13.811,9.9329,16.7534,17.8454
		C95.5433,82.836,96,79.8336,96,76.7241C96,66.8866,91.421,58.0999,84.2421,52.3011z M63.7593,70.5108
		c-4.6734,0-9.067-1.8197-12.3708-5.1244c-3.3049-3.3044-5.1246-7.6977-5.1246-12.3708c0-4.6734,1.8197-9.0668,5.1246-12.3711
		c3.3038-3.3046,7.6974-5.1243,12.3708-5.1243c4.6729,0,9.0665,1.8197,12.3709,5.1243c3.3048,3.3044,5.1245,7.6977,5.1245,12.3711
		c0,4.6732-1.8197,9.0665-5.1245,12.3708C72.8259,68.691,68.4323,70.5108,63.7593,70.5108z"/>
	<path d="M66.6053,40.8548c1.4039,0.8853,2.3395,2.4457,2.3395,4.2281c0,2.7614-2.2385,5-5,5c-2.7614,0-5-2.2386-5-5
		c0-1.7824,0.9355-3.3428,2.3395-4.2281c-5.4603,1.2146-9.5441,6.0841-9.5441,11.9103c0,6.7404,5.4642,12.2047,12.2046,12.2047
		c6.7405,0,12.2047-5.4642,12.2047-12.2047C76.1495,46.9389,72.0657,42.0694,66.6053,40.8548z"/>
</svg>
