<svg xmlns="http://www.w3.org/2000/svg" viewBox="0 0 652 231.9"><linearGradient id="a" gradientUnits="userSpaceOnUse" x1="141.75" y1="204.1" x2="141.75" y2="0"><stop offset="0" stop-color="#7c8796"/><stop offset=".075" stop-color="#959da9"/><stop offset=".183" stop-color="#b2b7c0"/><stop offset=".291" stop-color="#c6cad0"/><stop offset=".398" stop-color="#d3d5da"/><stop offset=".5" stop-color="#d7d9de"/><stop offset=".591" stop-color="#ced1d6"/><stop offset=".739" stop-color="#b6bbc3"/><stop offset=".924" stop-color="#8e97a4"/><stop offset="1" stop-color="#7c8796"/></linearGradient><path fill="url(#a)" d="M212.6 0L70.9 170.8v33.3L212.6 33.3z"/><linearGradient id="b" gradientUnits="userSpaceOnUse" x1="70.85" y1="231.9" x2="70.85" y2="27.8"><stop offset="0" stop-color="#7c8796"/><stop offset=".075" stop-color="#959da9"/><stop offset=".183" stop-color="#b2b7c0"/><stop offset=".291" stop-color="#c6cad0"/><stop offset=".398" stop-color="#d3d5da"/><stop offset=".5" stop-color="#d7d9de"/><stop offset=".591" stop-color="#ced1d6"/><stop offset=".739" stop-color="#b6bbc3"/><stop offset=".924" stop-color="#8e97a4"/><stop offset="1" stop-color="#7c8796"/></linearGradient><path fill="url(#b)" d="M0 198.6v33.3L141.7 61V27.8z"/><linearGradient id="c" gradientUnits="userSpaceOnUse" x1="593.9" y1="207.5" x2="593.9" y2="58.7"><stop offset="0" stop-color="#7c8796"/><stop offset=".075" stop-color="#959da9"/><stop offset=".183" stop-color="#b2b7c0"/><stop offset=".291" stop-color="#c6cad0"/><stop offset=".398" stop-color="#d3d5da"/><stop offset=".5" stop-color="#d7d9de"/><stop offset=".591" stop-color="#ced1d6"/><stop offset=".739" stop-color="#b6bbc3"/><stop offset=".924" stop-color="#8e97a4"/><stop offset="1" stop-color="#7c8796"/></linearGradient><path d="M603.1 119.9l-1.1-.3c-19.5-4.9-28.4-7.1-28.4-18.9 0-10.8 8.6-17.8 21.8-17.8 13.1 0 20.4 6.8 21.4 20.2l.1 1.1h31.2V103c0-4.9 0-16.3-8.2-26.7-12.2-15.3-32.3-17.6-43.3-17.6-41.6 0-56.4 23.4-56.4 45.3 0 18.8 8.8 32.7 52.4 43.6 17.6 4.2 25.6 6.1 25.6 17.6 0 11.1-9.9 18.3-25.3 18.3-10.4 0-17.5-3.3-21.1-9.9-3-5.4-3-11.7-3-15.1V157H537l-1.2.1v1.2c.2 13.4.7 49.2 55.4 49.2 36.1 0 60.6-18.6 60.8-46.3v-.8c-.3-28.8-27.3-35.3-48.9-40.5" fill="url(#c)"/><linearGradient id="d" gradientUnits="userSpaceOnUse" x1="435.3" y1="204.4" x2="435.3" y2="62.5"><stop offset="0" stop-color="#7c8796"/><stop offset=".075" stop-color="#959da9"/><stop offset=".183" stop-color="#b2b7c0"/><stop offset=".291" stop-color="#c6cad0"/><stop offset=".398" stop-color="#d3d5da"/><stop offset=".5" stop-color="#d7d9de"/><stop offset=".591" stop-color="#ced1d6"/><stop offset=".739" stop-color="#b6bbc3"/><stop offset=".924" stop-color="#8e97a4"/><stop offset="1" stop-color="#7c8796"/></linearGradient><path fill="url(#d)" d="M477.1 160.2l-23.2-97.7H419l-24.1 97.9-20.1-97.9h-33.4l33.7 141.9h34.4l25.7-100.8 23.3 100.8h35.4l35.3-141.9h-31.1z"/><linearGradient id="e" gradientUnits="userSpaceOnUse" x1="272.95" y1="204.4" x2="272.95" y2="62.5"><stop offset="0" stop-color="#7c8796"/><stop offset=".075" stop-color="#959da9"/><stop offset=".183" stop-color="#b2b7c0"/><stop offset=".291" stop-color="#c6cad0"/><stop offset=".398" stop-color="#d3d5da"/><stop offset=".5" stop-color="#d7d9de"/><stop offset=".591" stop-color="#ced1d6"/><stop offset=".739" stop-color="#b6bbc3"/><stop offset=".924" stop-color="#8e97a4"/><stop offset="1" stop-color="#7c8796"/></linearGradient><path d="M309 75.3c-11.6-8.5-28-12.8-48.9-12.8h-47.5v141.9h44.8c14.1 0 20-.6 25.4-1.6 14.3-2.6 26.6-10 35.4-21.3 10-12.8 15.1-29.7 15.1-50.2 0-14.2-3.2-40.4-24.3-56M287.6 170c-8.6 8.6-19.9 9.3-31.6 9.3-2.5 0-5.8-.1-8.6-.2V87.4c3.5-.1 6.6-.2 9.3-.2 9.1 0 13.6.8 18.5 2.2 21.4 6 24.6 28.9 24.6 42 .1 7.9-1.1 27.5-12.2 38.6" fill="url(#e)"/></svg>