<svg xmlns="http://www.w3.org/2000/svg" viewBox="0 0 128 128"><path fill="#d04990" d="M84.242 52.301c-.173-5.011-2.164-9.971-5.98-13.788a20.375 20.375 0 0 0-14.503-6.007 20.376 20.376 0 0 0-14.502 6.007c-3.883 3.882-5.874 8.947-5.987 14.046C36.373 58.358 32 66.965 32 76.577a31 31 0 0 0 1.311 8.95c2.888-7.765 8.795-14.097 16.322-17.651a20.455 20.455 0 0 0 5.92 3.942l8.15 23.676 8.292-23.69a20.462 20.462 0 0 0 5.94-3.975c7.732 3.513 13.811 9.933 16.754 17.845A30.983 30.983 0 0 0 96 76.724c0-9.837-4.579-18.624-11.758-24.423zM63.76 70.511c-4.673 0-9.067-1.82-12.37-5.125a17.379 17.379 0 0 1-5.125-12.37c0-4.674 1.82-9.067 5.125-12.371a17.378 17.378 0 0 1 12.37-5.125 17.38 17.38 0 0 1 12.371 5.125 17.38 17.38 0 0 1 5.125 12.37c0 4.674-1.82 9.067-5.125 12.371a17.38 17.38 0 0 1-12.37 5.125z"/><path fill="#fff" d="M66.605 40.855a4.992 4.992 0 0 1 2.34 4.228 5 5 0 1 1-10 0c0-1.783.935-3.343 2.34-4.228-5.461 1.214-9.545 6.084-9.545 11.91 0 6.74 5.464 12.205 12.205 12.205 6.74 0 12.205-5.464 12.205-12.205 0-5.826-4.084-10.696-9.545-11.91z"/></svg>